<svg xmlns="http://www.w3.org/2000/svg"
  xmlns:xlink="http://www.w3.org/1999/xlink" class="openrent-logo svg-logo logo-white" viewBox="130.09 -602.975 1230.273 312.776">
  <defs>
    <linearGradient xlink:href="#b" id="d" x1="156.13" x2="165.73" y1="18.17" y2="2.96" gradientTransform="rotate(-122.27 137.025 60.44)"/>
    <linearGradient id="b" x1="9.15" x2="28.24" y1="28.42" y2="13.22" gradientTransform="rotate(57.73 13.946 20.815)" gradientUnits="userSpaceOnUse">
      <stop offset="0"/>
      <stop offset=".23"/>
      <stop offset=".6" stop-opacity=".62"/>
      <stop offset="1" stop-opacity="0"/>
    </linearGradient>
    <filter id="a" width="96.33" height="59.43" x="-.29" y="0" color-interpolation-filters="sRGB" filterUnits="userSpaceOnUse">
      <feFlood flood-color="#fff" result="bg"/>
      <feBlend in="SourceGraphic" in2="bg"/>
    </filter>
    <filter id="c" width="96.33" height="59.43" x="0" y="28.24" color-interpolation-filters="sRGB" filterUnits="userSpaceOnUse">
      <feFlood flood-color="#fff" result="bg"/>
      <feBlend in="SourceGraphic" in2="bg"/>
    </filter>
    <mask id="e" width="96.33" height="59.43" x="-.29" y="0" maskUnits="userSpaceOnUse">
      <g style="filter:url(#a)">
        <path d="M4.96 9.66h57v91h-57z" style="fill:url(#b)" transform="rotate(-58 21.643 21.497)"/>
      </g>
    </mask>
    <mask id="f" width="96.33" height="59.43" x="0" y="28.24" maskUnits="userSpaceOnUse">
      <g style="filter:url(#c)">
        <path d="M37.11-20.31h57v93h-57z" style="fill:url(#d)" transform="rotate(-57.73 82.102 66.853)"/>
      </g>
    </mask>
  </defs>
  <path fill="#468bc9" d="M292.218-499.32c-.8-.691-2.2-.677-3 .03l-43.8 39.239c-.8.708-1.5 2.215-1.5 3.315v54.3c0 1.1.9 1.99 2 1.98l30.7-.307c1.1-.011 2-.92 2-2.02v-31.7c0-1.1.9-2.01 2-2.02l20.2-.202c1.1-.011 2 .88 2 1.98v31.7c0 1.1.9 1.99 2 1.98l30.7-.307c1.1-.011 2-.92 2-2.02v-54.3c0-1.1-.7-2.593-1.5-3.285l-43.8-38.362Z" class="house"/>
  <g class="spinner-parent">
    <g class="spinner">
      <path fill="#468bc9" d="M10.27 28.31a3.1 3.1 0 0 0 4.16-1.38 37.51 37.51 0 0 1 71.06 16.55h-3.65a.61.61 0 0 0-.6.95L88.15 59c.25.52.65.52.9 0L96 44.42a.61.61 0 0 0-.6-.95h-3.71a43.71 43.71 0 0 0-82.8-19.31 3.1 3.1 0 0 0 1.38 4.15Z" style="mask:url(#e)" transform="translate(139.15 -585.997) scale(3.15718)"/>
      <path fill="#468bc9" d="M85.77 59.36a3.1 3.1 0 0 0-4.16 1.38A37.51 37.51 0 0 1 10.55 44.2h3.65a.61.61 0 0 0 .6-.95L7.89 28.64c-.25-.52-.65-.52-.9 0L.09 43.25a.61.61 0 0 0 .6.95h3.66a43.71 43.71 0 0 0 82.8 19.32 3.1 3.1 0 0 0-1.38-4.16Z" style="mask:url(#f)" transform="translate(139.15 -585.997) scale(3.15718)"/>
    </g>
  </g>
  <g class="text">
    <path fill="#468bc9" d="M553.818-381.097c-36.6 0-66.4-29.8-66.4-66.4 0-36.6 29.8-66.4 66.4-66.4 36.6 0 66.4 29.8 66.4 66.4.1 36.6-29.8 66.4-66.4 66.4zm0-114.9c-26.8 0-48.5 21.8-48.5 48.5 0 26.9 21.8 48.7 48.5 48.7 26.9 0 48.7-21.8 48.7-48.7 0-26.8-21.8-48.5-48.7-48.5zM644.518-351.797c-5.2 0-9.2-3.9-9.2-8.9 0-3.2 1.8-6.3 4.6-7.8v-95.9c-2.8-1.5-4.6-4.5-4.6-7.8 0-5 4.1-8.9 9.2-8.9 6.9 0 11.9 4.9 12.9 12.5 7.1-7.8 17.5-12.5 28.4-12.5 25.6 0 45.6 22.2 45.6 50.6 0 27.2-20 48.4-45.6 48.4-11.2 0-21-3.9-28.2-11v25.5c.1 9.5-5.2 15.8-13.1 15.8zm41.2-111.4c-17.3 0-28 17.1-28 33 0 15.2 9.6 30.5 28 30.5 18.2 0 28-15.8 28-30.7 0-15.8-10.7-32.8-28-32.8zM794.818-381.097c-26.2 0-46.6-22.2-46.6-50.6 0-24.1 17.8-50.2 46.6-50.2 25.9 0 47 22.5 47 50.2 0 4.9-4.2 9-9.2 9h-65.8c3.3 12.2 13.9 23.8 28 23.8 10.8 0 19.3-2.9 25-8.7 1.7-1.7 4.1-2.7 6.7-2.7 4.8 0 8.9 3.9 8.9 8.5 0 2.5-.9 4.7-2.5 6.3-8.9 9.6-21.7 14.4-38.1 14.4zm28.4-59.2c-3.2-12.2-13.9-23.8-28.4-23.8-13 0-25 10.4-28.2 23.8h56.6zM939.218-381.997c-7.9 0-13.1-6.3-13.1-15.6v-39.6c0-17.5-8.2-26.1-25-26.1-13.9 0-23.9 9.8-23.9 23.4v42.2c0 9.4-5.3 15.6-13.1 15.6-5.2 0-9.2-3.9-9.2-8.9 0-3.2 1.8-6.3 4.6-7.8v-65.3c-2.9-1.6-4.6-4.6-4.6-7.9 0-5.1 4.1-9.2 9-9.2 6.5 0 11.2 3.8 12.8 10 4.8-4.6 12.9-10 24.5-10 27.2 0 42.7 16.5 42.7 45.2v37.2c2.8 1.5 4.6 4.5 4.6 7.8-.1 5.2-4.2 9-9.3 9zM1125.618-381.097c-26.2 0-46.6-22.2-46.6-50.6 0-24.1 17.8-50.2 46.6-50.2 25.9 0 47 22.5 47 50.2 0 4.9-4.2 9-9.2 9h-65.8c3.3 12.2 13.9 23.8 28 23.8 10.8 0 19.3-2.9 25-8.7 1.7-1.7 4.1-2.7 6.7-2.7 4.8 0 8.9 3.9 8.9 8.5 0 2.5-.9 4.7-2.5 6.3-8.9 9.6-21.7 14.4-38.1 14.4zm28.4-59.2c-3.2-12.2-13.9-23.8-28.4-23.8-13 0-25 10.4-28.2 23.8h56.6zM1270.018-381.997c-7.9 0-13.1-6.3-13.1-15.6v-39.6c0-17.5-8.2-26.1-25-26.1-13.9 0-23.9 9.8-23.9 23.4v42.2c0 9.4-5.3 15.6-13.1 15.6-5.2 0-9.2-3.9-9.2-8.9 0-3.2 1.8-6.3 4.6-7.8v-65.3c-2.9-1.6-4.6-4.6-4.6-7.9 0-5.1 4.1-9.2 9-9.2 6.5 0 11.2 3.8 12.8 10 4.8-4.6 12.9-10 24.5-10 27.2 0 42.7 16.5 42.7 45.2v37.2c2.8 1.5 4.6 4.5 4.6 7.8-.1 5.2-4.2 9-9.3 9zM977.218-381.797c-5.2 0-9.2-3.9-9.2-8.9 0-3.2 1.8-6.3 4.6-7.8v-98c-2.8-1.5-4.6-4.5-4.6-7.8 0-5 4-8.9 9.2-8.9h47.6c21.2 0 38.5 17.2 38.5 38.4 0 15.4-9.9 29.7-24 35.4l22.2 38.6.6.2c4.4 0 8.3 4 8.3 8.5 0 5.7-4.6 9.9-10.6 9.9-5 0-10.2-3.3-13.1-8.4l-26.2-46.2h-30.1v39.1c0 9.6-5.3 15.9-13.2 15.9zm47.6-72.4c11.3 0 20.5-9.1 20.5-20.4 0-11.4-9.2-20.7-20.5-20.7h-34.4v41.1h34.4zM1327.618-381.997c-19.5 0-29.4-12.3-29.4-36.7v-44.6h-2.2c-5 0-8.9-3.8-8.9-8.9 0-4.9 3.7-8.9 8.1-8.9h2.9v-10c-2.8-1.5-4.6-4.5-4.6-7.8 0-5 4.1-8.9 9.2-8.9 7.9 0 13.1 6.3 13.1 15.6v11.1h17.2c4.5 0 8.2 4 8.2 8.9 0 5-3.9 8.9-8.9 8.9h-16.4v44.6c0 13.8 3.1 18.9 11.6 18.9 2.3 0 5.6-.6 9.3-1.7 1-.2 1.8-.3 2.6-.3 4.1 0 7.7 2.7 8.6 6.5 1.1 4.1-.3 9.1-6 10.9-4.7 1.7-9.6 2.4-14.4 2.4z"/>
  </g>
</svg>